<?xml version="1.0" encoding="utf-8"?>
<!-- Generator: Avocode 2.5.0 - http://avocode.com -->
<svg height="100" width="100" xmlns:xlink="http://www.w3.org/1999/xlink" xmlns="http://www.w3.org/2000/svg" viewBox="0 0 100 100">
    <defs>
        <linearGradient y2="0%" y1="100%" x2="0%" x1="0%" id="gradient-1">
            <stop stop-opacity="0" stop-color="#ffffff" offset="0%" />
            <stop stop-color="#ffffff" offset="100%" />
        </linearGradient>
    </defs>
    <path fill="#ff0510" fill-rule="evenodd" d="M 50 0 C 77.61 0 100 22.39 100 50 C 100 77.61 77.61 100 50 100 C 22.39 100 0 77.61 0 50 C 0 22.39 22.39 0 50 0 Z" />
    <path fill="url(#gradient-1)" opacity="0.2" fill-rule="evenodd" d="M -17.57 7 C -17.57 7 120 86.43 120 86.43 C 120 86.43 40.57 224 40.57 224 C 40.57 224 -97 144.57 -97 144.57 C -97 144.57 -17.57 7 -17.57 7 Z" />
    <path stroke-linejoin="miter" stroke-linecap="butt" stroke-width="3" stroke="#ffffff" fill="none" fill-rule="evenodd" d="M 60 53.99 C 64.41 53.99 67.99 57.57 67.99 61.99 C 67.99 66.41 64.41 70 60 70 C 55.58 70 52 66.41 52 61.99 C 52 57.57 55.58 53.99 60 53.99 Z" />
    <path stroke-linejoin="miter" stroke-linecap="butt" stroke-width="3" stroke="#ffffff" fill="none" fill-rule="evenodd" d="M 65 33 C 65 33 37 68 37 68" />
    <path stroke-linejoin="miter" stroke-linecap="butt" stroke-width="3" stroke="#ffffff" fill="none" fill-rule="evenodd" d="M 40 30 C 44.41 30 47.99 33.59 47.99 38.01 C 47.99 42.43 44.41 46.01 40 46.01 C 35.58 46.01 32 42.43 32 38.01 C 32 33.59 35.58 30 40 30 Z" />
</svg>