<svg height="100" width="100" xmlns="http://www.w3.org/2000/svg" viewBox="0 0 100 100"><defs><linearGradient y2="0%" y1="100%" x2="0%" x1="0%" id="a"><stop stop-opacity="0" stop-color="#fff" offset="0%"/><stop stop-color="#fff" offset="100%"/></linearGradient></defs><path fill="#ff0510" fill-rule="evenodd" d="M50 0c27.61 0 50 22.39 50 50s-22.39 50-50 50S0 77.61 0 50 22.39 0 50 0z"/><path fill="url(#a)" opacity=".2" fill-rule="evenodd" d="M-17.57 7L120 86.43 40.57 224-97 144.57-17.57 7z"/><path stroke-width="3" stroke="#fff" fill="none" d="M60 53.99c4.41 0 7.99 3.58 7.99 8S64.41 70 60 70c-4.42 0-8-3.59-8-8.01s3.58-8 8-8zM65 33L37 68M40 30c4.41 0 7.99 3.59 7.99 8.01s-3.58 8-7.99 8c-4.42 0-8-3.58-8-8S35.58 30 40 30z"/></svg>